<?xml version="1.0" encoding="UTF-8"?> <!-- Uploaded to: SVG Repo, https://www.svgrepo.com/svg/334001/hide -->
<svg id="Layer_1" xmlns="http://www.w3.org/2000/svg" version="1.1" viewBox="0 0 800 800">
  <!-- Generator: Adobe Illustrator 30.0.0, SVG Export Plug-In . SVG Version: 2.1.1 Build 123)  -->
  <path d="M400,633.33c31.53,0,60.33-3.43,86.6-9.37l-58.57-58.57c-9.1.7-18.33,1.27-28.03,1.27-178.37,0-247.47-128.2-264.2-166.67,12.56-28.04,29.53-53.89,50.27-76.57l-46.6-46.6c-51.27,55.57-70.7,111.53-71.07,112.63-2.3,6.85-2.3,14.25,0,21.1.7,2.2,77.17,222.77,331.6,222.77ZM400,166.67c-61.23,0-111.53,13.2-153.47,32.7l-122.97-122.93-47.13,47.13,600,600,47.13-47.13-110.63-110.63c87.13-65.03,118.23-153.83,118.7-155.23,2.3-6.85,2.3-14.25,0-21.1-.73-2.23-77.2-222.8-331.63-222.8ZM565.73,518.6l-76-76c6.33-13,10.27-27.3,10.27-42.6,0-54.7-45.3-100-100-100-15.3,0-29.6,3.93-42.57,10.3l-60.27-60.27c33.08-11.35,67.86-17,102.83-16.7,178.37,0,247.47,128.2,264.2,166.67-10.07,23.07-38.87,78.07-98.47,118.6h0Z"/>
</svg>