<?xml version="1.0" encoding="UTF-8"?>
<svg id="Layer_1" xmlns="http://www.w3.org/2000/svg" version="1.1" viewBox="0 0 50 50">
  <!-- Generator: Adobe Illustrator 30.0.0, SVG Export Plug-In . SVG Version: 2.1.1 Build 123)  -->
  <defs>
    <style>
      .st0 {
        fill: none;
        stroke: #231f20;
        stroke-linecap: round;
        stroke-miterlimit: 10;
        stroke-width: 3px;
      }
    </style>
  </defs>
  <line class="st0" x1="22.75" y1="15.5" x2="26.95" y2="22.05"/>
  <line class="st0" x1="30.5" y1="15.5" x2="22.75" y2="15.5"/>
  <line class="st0" x1="22.75" y1="6.01" x2="22.75" y2="15.5"/>
  <line class="st0" x1="33.3" y1="9.7" x2="30.5" y2="15.5"/>
  <line class="st0" x1="22.75" y1="6.01" x2="33.3" y2="9.7"/>
  <line class="st0" x1="34.2" y1="6.26" x2="33.3" y2="9.7"/>
  <line class="st0" x1="39.15" y1="11.05" x2="33.3" y2="9.7"/>
  <line class="st0" x1="39.8" y1="7.86" x2="39.15" y2="11.05"/>
  <line class="st0" x1="34.2" y1="6.26" x2="39.8" y2="7.86"/>
  <line class="st0" x1="43.59" y1="13.35" x2="39.8" y2="7.86"/>
  <line class="st0" x1="43.19" y1="17.05" x2="39.15" y2="11.05"/>
  <line class="st0" x1="33.3" y1="9.7" x2="37.45" y2="15.95"/>
  <line class="st0" x1="43.19" y1="17.05" x2="37.45" y2="15.95"/>
  <line class="st0" x1="34.55" y1="21.7" x2="37.45" y2="15.95"/>
  <line class="st0" x1="30.5" y1="15.5" x2="34.55" y2="21.7"/>
  <line class="st0" x1="26.95" y1="22.05" x2="34.55" y2="21.7"/>
  <line class="st0" x1="31.05" y1="28.65" x2="34.55" y2="21.7"/>
  <line class="st0" x1="43.19" y1="27.65" x2="34.55" y2="21.7"/>
  <line class="st0" x1="43.19" y1="17.05" x2="43.19" y2="27.65"/>
  <line class="st0" x1="47.49" y1="26.1" x2="43.19" y2="27.65"/>
  <line class="st0" x1="46.04" y1="19.25" x2="47.49" y2="26.1"/>
  <line class="st0" x1="47.69" y1="21.88" x2="47.49" y2="26.1"/>
  <line class="st0" x1="46.44" y1="15.95" x2="47.69" y2="21.88"/>
  <line class="st0" x1="46.04" y1="19.25" x2="46.44" y2="15.95"/>
  <line class="st0" x1="43.19" y1="17.05" x2="46.04" y2="19.25"/>
  <line class="st0" x1="43.59" y1="13.35" x2="46.44" y2="15.95"/>
  <line class="st0" x1="43.19" y1="17.05" x2="43.59" y2="13.35"/>
  <line class="st0" x1="42.44" y1="8.56" x2="46.44" y2="15.95"/>
  <line class="st0" x1="39.8" y1="7.86" x2="42.44" y2="8.56"/>
  <line class="st0" x1="34.75" y1="4.06" x2="42.44" y2="8.56"/>
  <line class="st0" x1="39.8" y1="7.86" x2="34.75" y2="4.06"/>
  <line class="st0" x1="34.2" y1="6.26" x2="29.1" y2="2.81"/>
  <line class="st0" x1="34.75" y1="4.06" x2="29.1" y2="2.81"/>
  <line class="st0" x1="22.75" y1="6.01" x2="29.1" y2="2.81"/>
  <line class="st0" x1="23.5" y1="2.31" x2="29.1" y2="2.81"/>
  <line class="st0" x1="17.6" y1="3.43" x2="22.75" y2="6.01"/>
  <line class="st0" x1="23.5" y1="2.31" x2="17.6" y2="3.43"/>
  <line class="st0" x1="12.35" y1="7.86" x2="17.6" y2="3.43"/>
  <line class="st0" x1="13.1" y1="5.64" x2="17.6" y2="3.43"/>
  <line class="st0" x1="8.31" y1="9.45" x2="13.1" y2="5.64"/>
  <line class="st0" x1="12.35" y1="7.86" x2="8.31" y2="9.45"/>
  <line class="st0" x1="12.85" y1="11.35" x2="12.35" y2="7.86"/>
  <line class="st0" x1="22.75" y1="6.01" x2="12.85" y2="11.35"/>
  <line class="st0" x1="15.6" y1="16.3" x2="12.85" y2="11.35"/>
  <line class="st0" x1="22.75" y1="15.5" x2="15.6" y2="16.3"/>
  <line class="st0" x1="12" y1="22.9" x2="15.6" y2="16.3"/>
  <line class="st0" x1="9.35" y1="17.6" x2="12" y2="22.9"/>
  <line class="st0" x1="12.85" y1="11.35" x2="9.35" y2="17.6"/>
  <line class="st0" x1="8.31" y1="12.83" x2="12.85" y2="11.35"/>
  <line class="st0" x1="8.31" y1="9.25" x2="8.31" y2="12.83"/>
  <line class="st0" x1="4.96" y1="19.25" x2="8.31" y2="12.83"/>
  <line class="st0" x1="2.71" y1="17.05" x2="8.31" y2="9.45"/>
  <line class="st0" x1="4.96" y1="19.25" x2="2.71" y2="17.05"/>
  <line class="st0" x1="2.31" y1="26.87" x2="2.71" y2="17.05"/>
  <line class="st0" x1="3.83" y1="25.85" x2="2.31" y2="26.87"/>
  <line class="st0" x1="4.96" y1="19.25" x2="3.83" y2="25.85"/>
  <line class="st0" x1="7.21" y1="24.25" x2="4.96" y2="19.25"/>
  <line class="st0" x1="9.35" y1="17.6" x2="4.96" y2="19.25"/>
  <line class="st0" x1="12" y1="22.9" x2="7.21" y2="24.25"/>
  <line class="st0" x1="6.08" y1="30.95" x2="7.21" y2="24.25"/>
  <line class="st0" x1="3.83" y1="25.85" x2="6.08" y2="30.95"/>
  <line class="st0" x1="4.16" y1="32.3" x2="2.31" y2="26.87"/>
  <line class="st0" x1="6.08" y1="37.55" x2="4.16" y2="32.3"/>
  <line class="st0" x1="6.08" y1="30.95" x2="4.16" y2="32.3"/>
  <line class="st0" x1="7.96" y1="37" x2="6.08" y2="37.55"/>
  <line class="st0" x1="6.08" y1="30.95" x2="7.96" y2="37.27"/>
  <line class="st0" x1="10.58" y1="41.64" x2="6.08" y2="37.55"/>
  <line class="st0" x1="12.85" y1="41.34" x2="10.58" y2="41.64"/>
  <line class="st0" x1="7.96" y1="37" x2="13.1" y2="41.34"/>
  <line class="st0" x1="13.8" y1="34.45" x2="13.1" y2="41.34"/>
  <line class="st0" x1="23.5" y1="40.5" x2="13.8" y2="34.45"/>
  <line class="st0" x1="6.08" y1="30.95" x2="13.8" y2="34.45"/>
  <line class="st0" x1="12" y1="22.9" x2="13.8" y2="34.45"/>
  <line class="st0" x1="23.5" y1="28.67" x2="13.8" y2="34.45"/>
  <line class="st0" x1="19.18" y1="22.35" x2="23.5" y2="28.67"/>
  <line class="st0" x1="12" y1="22.9" x2="19.18" y2="22.35"/>
  <line class="st0" x1="22.75" y1="15.5" x2="19.18" y2="22.35"/>
  <line class="st0" x1="26.95" y1="22.05" x2="23.5" y2="28.67"/>
  <line class="st0" x1="31.05" y1="28.65" x2="23.5" y2="28.67"/>
  <line class="st0" x1="26.95" y1="35.1" x2="23.5" y2="28.67"/>
  <line class="st0" x1="23.5" y1="40.5" x2="26.95" y2="35.1"/>
  <line class="st0" x1="34.55" y1="34.65" x2="26.95" y2="35.1"/>
  <line class="st0" x1="31.05" y1="28.65" x2="34.55" y2="34.65"/>
  <line class="st0" x1="43.19" y1="27.65" x2="34.55" y2="34.65"/>
  <line class="st0" x1="42.89" y1="36.4" x2="43.19" y2="27.65"/>
  <line class="st0" x1="46.04" y1="32.7" x2="42.89" y2="36.4"/>
  <line class="st0" x1="46.24" y1="34.45" x2="43.19" y2="38.35"/>
  <line class="st0" x1="42.89" y1="36.4" x2="43.19" y2="38.35"/>
  <line class="st0" x1="47.49" y1="26.1" x2="47.69" y2="28.2"/>
  <line class="st0" x1="46.04" y1="32.7" x2="47.49" y2="26.1"/>
  <line class="st0" x1="46.24" y1="34.45" x2="47.69" y2="27.95"/>
  <line class="st0" x1="46.04" y1="32.7" x2="46.24" y2="34.45"/>
  <line class="st0" x1="42.89" y1="36.4" x2="37" y2="38.65"/>
  <line class="st0" x1="34.55" y1="34.65" x2="37" y2="38.65"/>
  <line class="st0" x1="30.5" y1="40.2" x2="34.55" y2="34.65"/>
  <line class="st0" x1="23.5" y1="40.5" x2="30.5" y2="40.2"/>
  <line class="st0" x1="33.3" y1="43.79" x2="30.5" y2="40.2"/>
  <line class="st0" x1="37" y1="38.65" x2="33.3" y2="43.79"/>
  <line class="st0" x1="38.87" y1="41.49" x2="33.1" y2="43.79"/>
  <line class="st0" x1="42.89" y1="36.4" x2="38.87" y2="41.49"/>
  <line class="st0" x1="39.47" y1="42.64" x2="43.19" y2="38.35"/>
  <line class="st0" x1="38.87" y1="41.49" x2="39.47" y2="42.64"/>
  <line class="st0" x1="31.05" y1="47.69" x2="33.3" y2="43.79"/>
  <line class="st0" x1="39.47" y1="42.64" x2="31.05" y2="47.69"/>
  <line class="st0" x1="22.75" y1="46.49" x2="31.05" y2="47.69"/>
  <line class="st0" x1="20.18" y1="46.79" x2="31.05" y2="47.69"/>
  <line class="st0" x1="26.3" y1="44.09" x2="22.75" y2="46.49"/>
  <line class="st0" x1="33.3" y1="43.79" x2="26.3" y2="44.09"/>
  <line class="st0" x1="23.5" y1="40.5" x2="26.3" y2="44.09"/>
  <line class="st0" x1="19.5" y1="43.39" x2="22.75" y2="46.49"/>
  <line class="st0" x1="16.1" y1="44.59" x2="22.75" y2="46.49"/>
  <line class="st0" x1="14.23" y1="44.59" x2="16.1" y2="44.59"/>
  <line class="st0" x1="20.18" y1="46.79" x2="14.23" y2="44.59"/>
  <line class="st0" x1="10.58" y1="41.64" x2="14.23" y2="44.59"/>
  <line class="st0" x1="13.1" y1="41.34" x2="16.1" y2="44.59"/>
  <line class="st0" x1="19.5" y1="43.39" x2="13.1" y2="41.34"/>
  <line class="st0" x1="23.5" y1="40.5" x2="19.5" y2="43.39"/>
</svg>