<?xml version="1.0" encoding="UTF-8"?>
<svg id="Layer_1" xmlns="http://www.w3.org/2000/svg" version="1.1" viewBox="0 0 50 50">
  <defs>
    <style>
      .st0 {
        fill: none;
        stroke: #231f20;
        stroke-linecap: round;
        stroke-miterlimit: 10;
        stroke-width: 3.5px;
      }
    </style>
  </defs>
  <line class="st0" x1="35.25" y1="22.62" x2="35.45" y2="36.62"/>
  <line class="st0" x1="35.45" y1="36.62" x2="39.06" y2="44.42"/>
  <line class="st0" x1="39.06" y1="44.42" x2="43.96" y2="41.46"/>
  <line class="st0" x1="43.96" y1="41.46" x2="47.28" y2="29.47"/>
  <line class="st0" x1="47.28" y1="29.47" x2="47.07" y2="15.47"/>
  <line class="st0" x1="47.07" y1="15.47" x2="43.46" y2="7.66"/>
  <line class="st0" x1="43.46" y1="7.66" x2="38.57" y2="10.62"/>
  <line class="st0" x1="38.57" y1="10.62" x2="35.25" y2="22.62"/>
  <line class="st0" x1="35.25" y1="22.62" x2="25.58" y2="12.11"/>
  <line class="st0" x1="25.58" y1="12.11" x2="12.11" y2="11.25"/>
  <line class="st0" x1="12.11" y1="11.25" x2="2.72" y2="20.53"/>
  <line class="st0" x1="2.72" y1="20.53" x2="2.93" y2="34.53"/>
  <line class="st0" x1="2.93" y1="34.53" x2="12.6" y2="45.04"/>
  <line class="st0" x1="12.6" y1="45.04" x2="26.07" y2="45.91"/>
  <line class="st0" x1="26.07" y1="45.91" x2="35.45" y2="36.62"/>
  <line class="st0" x1="6.04" y1="8.54" x2="10.94" y2="5.58"/>
  <line class="st0" x1="6.54" y1="42.34" x2="2.93" y2="34.53"/>
  <line class="st0" x1="2.72" y1="20.53" x2="6.04" y2="8.54"/>
  <line class="st0" x1="6.04" y1="8.54" x2="12.11" y2="11.25"/>
  <line class="st0" x1="25.58" y1="12.11" x2="38.57" y2="10.62"/>
  <line class="st0" x1="43.46" y1="7.66" x2="37.4" y2="4.96"/>
  <line class="st0" x1="37.4" y1="4.96" x2="23.93" y2="4.09"/>
  <line class="st0" x1="23.93" y1="4.09" x2="10.94" y2="5.58"/>
  <line class="st0" x1="39.06" y1="44.42" x2="26.07" y2="45.91"/>
  <line class="st0" x1="12.6" y1="45.04" x2="6.54" y2="42.34"/>
</svg>